# xmcd CD database file
# Copyright (C) 1993-1998 Ti Kan
#
# Track frame offsets:
#  150
#  24278
#  43658
#  67225
#  86293
#  101595
#  135458
#  158048
#  175673
#  203460
#
# Disc length: 3187 seconds
#
# Revision: 1
# Processed by: cddbd v1.4b41PL1 Copyright (c) Steve Scherf et al.
# Submitted via: CDWizzard Release:4.32
#
DISCID=740c710a
DTITLE=Bob Dylan - Tom Petty - LIVE USA
DYEAR=1900
DGENRE=
TTITLE0=Positively 4th Street
TTITLE1=All along the watchtower
TTITLE2=Masters of war
TTITLE3=I'll remember you
TTITLE4=Johnny B. Good
TTITLE5=Breakdown
TTITLE6=Just like a woman
TTITLE7=Blowin' in the wind
TTITLE8=Like a rolling stone
TTITLE9=Knockin' on heavens door
EXTD=Recorded live in concert during the American tour in 1986.
EXTT0=
EXTT1=
EXTT2=
EXTT3=
EXTT4=
EXTT5=
EXTT6=
EXTT7=
EXTT8=
EXTT9=
PLAYORDER=
